<svg width="280" height="140" viewBox="0 0 280 140" fill="none" xmlns="http://www.w3.org/2000/svg">
<path d="M-410.158 139.3C-374.586 125.486 -338.188 122.773 -300.962 131.162C-263.736 139.551 -227.337 136.839 -191.766 123.025C-156.194 109.211 -119.796 106.499 -82.5699 114.888C-45.344 123.277 -8.94536 120.564 26.626 106.751C62.1973 92.9367 98.596 90.2243 135.822 98.6133C173.048 107.002 209.446 104.29 245.018 90.476C280.589 76.6621 316.988 73.9497 354.214 82.3387C391.44 90.7277 427.838 88.0152 463.41 74.2014C498.981 60.3876 535.38 57.6751 572.606 66.0641C609.831 74.4531 646.23 71.7407 681.801 57.9268C717.373 44.113 753.771 41.4006 790.997 49.7895C828.223 58.1785 864.622 55.4661 900.193 41.6522C935.765 27.8384 972.163 25.126 1009.39 33.515C1046.62 41.9039 1083.01 39.1915 1118.59 25.3777C1154.16 11.5638 1190.56 8.8514 1227.78 17.2404C1265.01 25.6294 1301.41 22.9169 1336.98 9.1031C1372.55 -4.71074 1408.95 -7.42317 1446.17 0.965808C1483.4 9.35479 1519.8 6.64236 1555.37 -7.17148C1590.94 -20.9853 1627.34 -23.6977 1664.56 -15.3088C1701.79 -6.91979 1738.19 -9.63221 1773.76 -23.4461" stroke="#F2F7FF" stroke-opacity="0.1"/>
</svg>
