<svg width="33" height="34" viewBox="0 0 33 34" fill="none" xmlns="http://www.w3.org/2000/svg">
<path d="M15.8521 0.722294C12.6426 0.890499 9.555 2.00667 6.97981 3.92965C4.40462 5.85263 2.4575 8.49606 1.38466 11.5257C0.311825 14.5553 0.16146 17.835 0.952584 20.95C1.74371 24.0651 3.44079 26.8756 5.82921 29.0261C8.21764 31.1767 11.1901 32.5707 14.3708 33.0319C17.5515 33.493 20.7975 33.0007 23.6984 31.617C26.5993 30.2334 29.0247 28.0206 30.6679 25.2585C32.3112 22.4964 33.0985 19.3091 32.9303 16.0996C32.7 11.7975 30.7725 7.76238 27.5709 4.87958C24.3692 1.99678 20.1547 0.501686 15.8521 0.722294ZM24.5286 9.98778L20.6529 19.9139C20.5393 20.205 20.3207 20.4429 20.0403 20.5808L10.9805 25.0386C10.7564 25.1489 10.5043 25.1895 10.2568 25.1552C10.0094 25.1209 9.77789 25.0132 9.59223 24.846C9.40656 24.6789 9.27525 24.4599 9.21523 24.2174C9.1552 23.9749 9.16923 23.72 9.25549 23.4855L12.7417 14.0092C12.8493 13.7168 13.0623 13.4752 13.3387 13.3316L22.788 8.4239C23.0136 8.30671 23.2696 8.26111 23.5218 8.29318C23.774 8.32525 24.0105 8.43346 24.1996 8.60338C24.3887 8.7733 24.5215 8.99685 24.5803 9.2442C24.6391 9.49155 24.621 9.75095 24.5286 9.98778Z" fill="url(#paint0_linear_5144_2797)"/>
<defs>
<linearGradient id="paint0_linear_5144_2797" x1="-2.26084" y1="0.288409" x2="40.5191" y2="7.42274" gradientUnits="userSpaceOnUse">
<stop stop-color="#176FEB"/>
<stop offset="1" stop-color="#FF80FF"/>
</linearGradient>
</defs>
</svg>
